<?xml version="1.0" standalone="no"?>
<!DOCTYPE svg PUBLIC "-//W3C//DTD SVG 1.1//EN" "http://www.w3.org/Graphics/SVG/1.1/DTD/svg11.dtd" >
<!--
2013-9-30: Created.
-->
<svg>
<metadata>
Created by iconfont
</metadata>
<defs>

<font id="iconfont" horiz-adv-x="1024" >
  <font-face
    font-family="iconfont"
    font-weight="500"
    font-stretch="normal"
    units-per-em="1024"
    ascent="896"
    descent="-128"
  />
    <missing-glyph />
    
    <glyph glyph-name="notice" unicode="&#58942;" d="M787.908422 332.234009L787.908422 546.947186c0 152.726403-96.294137 222.682685-223.373417 236.678444 0.031722 0.931209 0.278339 1.811252 0.278339 2.76702 0 27.231201-22.429849 49.288566-50.031487 49.288566-27.662013 0-50.058093-22.057365-50.058093-49.288566 0-0.937348 0.23843-1.804089 0.295735-2.677992-127.636982-13.70207-224.524636-83.607186-224.524636-236.767472l0-214.713176c0-172.349323-442.565605-257.698177 265.890766-257.698177C1214.842001 74.53583300000003 787.908422 159.884686 787.908422 332.234009L787.908422 332.234009zM514.782881-64.67064900000003c52.405557 0 94.916766 41.893132 94.916766 93.54042L419.849742 28.869770000000017C419.849742-22.77751699999999 462.347648-64.67064900000003 514.782881-64.67064900000003L514.782881-64.67064900000003zM514.782881-64.67064900000003"  horiz-adv-x="1024" />

    
    <glyph glyph-name="lingdang" unicode="&#58961;" d="M951.522133 332.1952c-52.199467 9.4656-146.145067 21.729067-184.2656 87.755733l-131.060267 227.003733-0.535467-0.309333c-91.0464 146.074667-216.494933 191.713067-360.826667 132.683733 6.488533 18.360533 5.389867 38.680533-6.293333 58.9152-24.128 41.790933-83.5168 67.086933-124.954667 43.162667-41.4368-23.9232-49.2288-88.007467-25.1008-129.797333 11.6832-20.235733 28.7296-31.348267 47.879467-34.9056-123.309867-95.4944-146.485333-226.9408-65.5104-378.829867l-0.536533-0.309333 131.060267-227.003733c39.681067-68.7296 1.774933-153.5136-16.128-203.4528-4.5472-45.0912 37.893333-29.000533 60.532267-15.9296l659.182933 380.5792C957.624533 284.840533 992.779733 313.549867 951.522133 332.1952zM492.925867-41.105067c45.639467-55.429333 125.390933-71.738667 189.101867-34.954667 63.709867 36.782933 89.467733 114.008533 64.283733 181.246933L492.925867-41.105067z"  horiz-adv-x="1024" />

    
    <glyph glyph-name="jurisdiction" unicode="&#59096;" d="M139.636364 475.182545l0-554.728727C139.636364-106.30981799999995 160.349091-128 186.228364-128l651.543273 0C863.511273-128 884.363636-106.30981799999995 884.363636-79.54618200000004L884.363636 475.182545C884.363636 501.946182 863.650909 523.636364 837.771636 523.636364L186.228364 523.636364C160.488727 523.636364 139.636364 501.946182 139.636364 475.182545zM512 335.220364c51.386182 0 93.090909-43.659636 93.090909-97.512727 0-36.119273-18.711273-67.630545-46.545455-84.48l0-86.202182c0 0 0-48.779636-46.498909-48.779636C465.594182 18.29236400000002 465.454545 67.02545499999997 465.454545 67.02545499999997l0 86.202182c-27.834182 16.849455-46.545455 48.360727-46.545455 84.48C418.909091 291.56072700000004 460.567273 335.220364 512 335.220364zM746.449455 523.7294549999999l0 128.465455c0 0 0 243.805091-234.449455 243.805091C278.295273 896 278.295273 653.2189089999999 278.295273 653.2189089999999l0-129.489455 46.545455 0L324.840727 653.2189089999999c0 0 0 196.235636 187.159273 196.235636s187.904-197.259636 187.904-197.259636l0-128.465455L746.449455 523.7294549999999z"  horiz-adv-x="1024" />

    
    <glyph glyph-name="edit" unicode="&#58938;" d="M249.6 76.79999999999995c19.2 0 38.4 6.4 57.6 19.2l6.4 0L134.4 275.20000000000005l0-6.4c-12.8-19.2-19.2-38.4-19.2-57.6l-64-198.4L249.6 76.79999999999995 249.6 76.79999999999995 249.6 76.79999999999995 249.6 76.79999999999995zM889.6 793.6L832 851.2c-32 32-83.2 32-115.2 0l-57.6-57.6L832 620.8l57.6 57.6C921.6 710.4 921.6 761.6 889.6 793.6L889.6 793.6 889.6 793.6 889.6 793.6zM774.4 563.2L601.6 736 198.4 332.79999999999995l172.8-172.8L774.4 563.2 774.4 563.2 774.4 563.2 774.4 563.2zM0-44.799999999999955l1024 0 0-64L0-108.79999999999995 0-44.799999999999955 0-44.799999999999955z"  horiz-adv-x="1024" />

    
    <glyph glyph-name="drag_Zoom" unicode="&#58962;" d="M71.675-66l-9.675 900 890.325-900z"  horiz-adv-x="1024" />

    
    <glyph glyph-name="alipay" unicode="&#59116;" d="M991.67 206.55200000000002v472.296c0 101.81-82.623 184.433-184.493 184.433h-590.414c-101.81 0-184.433-82.623-184.433-184.433v-590.414c0-101.81 82.563-184.433 184.433-184.433h590.414c90.717 0 166.206 65.595 181.615 151.876-48.926 21.165-260.941 112.722-371.385 165.427-84.062-101.81-172.082-162.908-304.771-162.908s-221.248 81.724-210.636 181.735c7.015 65.655 52.044 172.981 247.629 154.574 103.069-9.653 150.257-28.9 234.319-56.661 21.765 39.873 39.813 83.763 53.543 130.47h-372.764v36.935h184.433v66.314h-224.965v40.652h224.965v95.694c0 0 2.039 14.99 18.587 14.99h92.216v-110.684h239.835v-40.652h-239.835v-66.314h195.646c-17.988-73.209-45.269-140.483-79.446-199.243 56.841-20.566 315.503-99.652 315.503-99.652v0 0zM297.947 121.71000000000004c-140.183 0-162.368 88.499-154.933 125.494 7.375 36.815 47.967 84.842 125.914 84.842 89.578 0 169.803-22.904 266.097-69.792-67.633-88.079-150.736-140.543-237.077-140.543v0z"  horiz-adv-x="1024" />

    
    <glyph glyph-name="weixin" unicode="&#58901;" d="M693.12 548.736c11.776 0 23.36-0.896 35.008-2.176-31.36 146.048-187.456 254.528-365.696 254.528C163.2 801.088 0 665.344 0 492.864c0-99.52 54.272-181.248 145.024-244.736L108.8 139.136l126.72 63.488c45.312-8.896 81.664-18.112 126.912-18.112 11.392 0 22.656 0.512 33.792 1.344-7.04 24.256-11.2 49.6-11.2 76.032C385.088 420.224 521.024 548.736 693.12 548.736zM498.304 646.976c27.392 0 45.376-17.984 45.376-45.248 0-27.136-17.984-45.312-45.376-45.312-27.072 0-54.336 18.176-54.336 45.312C443.968 629.056 471.168 646.976 498.304 646.976zM244.672 556.416c-27.2 0-54.592 18.176-54.592 45.312 0 27.264 27.392 45.248 54.592 45.248S289.92 629.056 289.92 601.728C289.92 574.592 271.872 556.416 244.672 556.416zM1024 266.24c0 144.896-145.024 262.976-307.904 262.976-172.48 0-308.224-118.144-308.224-262.976 0-145.28 135.808-262.976 308.224-262.976 36.096 0 72.512 9.024 108.736 18.112l99.392-54.528-27.264 90.624C969.728 112.128 1024 184.512 1024 266.24zM616.128 311.616c-17.984 0-36.224 17.92-36.224 36.224 0 18.048 18.24 36.224 36.224 36.224 27.52 0 45.376-18.176 45.376-36.224C661.504 329.536 643.648 311.616 616.128 311.616zM815.488 311.616c-17.856 0-36.032 17.92-36.032 36.224 0 18.048 18.112 36.224 36.032 36.224 27.264 0 45.376-18.176 45.376-36.224C860.864 329.536 842.752 311.616 815.488 311.616z"  horiz-adv-x="1024" />

    
    <glyph glyph-name="qq" unicode="&#59041;" d="M897.031 269.258s-26.016 96.832-73.711 155.853c0 0 26.016 48.877-17.344 116.198 0 0-10.406 290.496-293.977 290.496S218.023 541.31 218.023 541.31c-43.359-67.321-17.344-116.198-17.344-116.198-47.695-59.021-73.711-155.853-73.711-155.853-24.281-118.043 21.68-139.254 28.617-141.098s22.547 16.6 27.75 24.9c5.203 8.3 16.477 35.044 19.078 36.888s6.938-13.833 6.938-13.833c18.211-59.944 57.234-103.288 57.234-103.288-39.023-14.755-65.906-43.344-65.906-43.344s-49.43-75.621 82.383-90.377 218.531 31.355 218.531 31.355h20.813s86.719-46.111 218.531-31.355 82.383 90.377 82.383 90.377-26.883 28.589-65.906 43.344c0 0 39.023 43.344 57.234 103.288 0 0 4.336 15.678 6.938 13.833s13.875-28.589 19.078-36.888c5.203-8.3 20.813-26.744 27.75-24.9s52.898 23.054 28.617 141.097z"  horiz-adv-x="1024" />

    
    <glyph glyph-name="home_event_read" unicode="&#60023;" d="M705.28 424.106667L660.053333 469.333333l-208.213333-208.213333-90.453333 90.453333-45.226667-45.226666L451.84 170.66666699999996l253.44 253.44zM810.666667 768h-42.666667V853.333333h-85.333333v-85.333333H341.333333V853.333333h-85.333333v-85.333333h-42.666667c-47.146667 0-84.906667-38.186667-84.906666-85.333333L128 85.33333300000004c0-47.146667 38.186667-85.333333 85.333333-85.333333h597.333334c47.146667 0 85.333333 38.186667 85.333333 85.333333V682.666667c0 47.146667-38.186667 85.333333-85.333333 85.333333z m0-682.666667H213.333333V554.666667h597.333334v-469.333334z"  horiz-adv-x="1024" />

    
    <glyph glyph-name="home_event_unread" unicode="&#60024;" d="M397.226667 170.66666699999996l104.106666 104.106666L605.44 170.66666699999996l45.226667 45.226666L546.56 320l104.106667 104.106667L605.44 469.333333l-104.106667-104.106666L397.226667 469.333333l-45.226667-45.226666L456.106667 320l-104.106667-104.106667L397.226667 170.66666699999996zM810.666667 768h-42.666667V853.333333h-85.333333v-85.333333H341.333333V853.333333h-85.333333v-85.333333h-42.666667c-47.146667 0-84.906667-38.186667-84.906666-85.333333L128 85.33333300000004c0-47.146667 38.186667-85.333333 85.333333-85.333333h597.333334c47.146667 0 85.333333 38.186667 85.333333 85.333333V682.666667c0 47.146667-38.186667 85.333333-85.333333 85.333333z m0-682.666667H213.333333V554.666667h597.333334v-469.333334z"  horiz-adv-x="1024" />

    
    <glyph glyph-name="ziyuan" unicode="&#58969;" d="M512 896a512 512 0 1 1 512-512A512 512 0 0 1 512 896z m345.344-334.848l-399.36-414.464a44.288 44.288 0 0 0-67.84-5.12 43.264 43.264 0 0 0-3.328 5.12l-220.16 228.096a47.36 47.36 0 0 0 0 65.28 43.264 43.264 0 0 0 62.72 0l192.768-199.936L793.6 626.176a43.264 43.264 0 0 0 62.72 0 47.36 47.36 0 0 0 1.024-65.024z"  horiz-adv-x="1024" />

    
    <glyph glyph-name="visible-eye" unicode="&#58924;" d="M958.276267 400.4608c-2.0224 2.781867-50.466133 68.957867-129.211734 135.970133-105.582933 89.856-215.364267 137.352533-317.4656 137.352534s-211.882667-47.496533-317.4656-137.352534C115.387733 469.418667 66.952533 403.242667 64.9216 400.4608a21.3248 21.3248 0 0 1 0-25.079467c2.0224-2.781867 50.466133-68.9664 129.211733-135.978666 105.591467-89.856 215.364267-137.361067 317.4656-137.361067s211.882667 47.496533 317.4656 137.361067c78.7456 67.012267 127.1808 133.188267 129.211734 135.978666a21.3248 21.3248 0 0 1 0 25.079467zM511.598933 144.70826699999998c-194.346667 0-361.173333 191.761067-402.423466 243.208533 41.250133 51.447467 208.068267 243.191467 402.423466 243.191467 194.372267 0 361.198933-191.7696 402.423467-243.2-41.173333-51.447467-207.744-243.2-402.423467-243.2zM518.144 569.1562670000001c-100.778667 0-182.766933-81.9968-182.766933-182.784 0-100.7872 81.988267-182.784 182.766933-182.784 100.778667 0 182.766933 81.9968 182.766933 182.784 0 100.7872-81.9968 182.784-182.766933 182.784z m0-322.901334c-77.252267 0-140.100267 62.856533-140.100267 140.117334 0 77.2608 62.848 140.117333 140.100267 140.117333s140.100267-62.856533 140.100267-140.117333c0-77.252267-62.856533-140.117333-140.100267-140.117334z"  horiz-adv-x="1024" />

    
    <glyph glyph-name="qiandai" unicode="&#58880;" d="M513.495-38.68799999999999c-264.537 0-375.498 94.623-375.498 289.082 0 161.099 125.823 329.218 278.354 382.256l194.29 0c152.536-53.039 278.354-221.158 278.354-382.256 0-194.459-110.962-289.082-375.501-289.082L513.495-38.68799999999999zM617.561 280.85400000000004l0 0.065c17.556 0.091 31.756 14.354 31.756 31.924 0 17.588-14.199 31.834-31.756 31.944l0 0.076-64.407 0c0.125 0.718-0.085 1.356-0.021 2.076l75.481 77.16c12.312 13.871 6.048 25.344-6.396 37.918-12.522 12.642-32.988 15.292-43.107 4.277l-64.906-69.189-70.107 70.111c-8.873 8.863-26.131 5.975-38.55-6.445-12.432-12.438-15.31-29.711-6.445-38.573l71.703-71.688c-1.342-1.715-2.21-3.621-2.731-5.647L409.8 344.86300000000006l0-0.062c-0.055 0-0.11 0-0.165 0-17.647 0-31.958-14.294-31.958-31.957 0-17.632 14.311-31.957 31.958-31.957 0.054 0 0.109 0.032 0.165 0.032l0-0.064 63.875 0 0-31.83L409.8 249.02499999999998l0-0.095c-0.055 0-0.11 0-0.165 0-17.647 0-31.958-14.295-31.958-31.957 0-17.633 14.311-31.958 31.958-31.958 0.054 0 0.109 0.031 0.165 0.031l0-0.031 63.875 0 0-32.176 0.662 0c-0.5-2.495-0.786-5.102-0.786-7.771 0-22.063 17.882-39.946 39.943-39.946 22.066 0 39.949 17.883 39.949 39.946 0 2.669-0.291 5.275-0.789 7.771l0.374 0 0 32.176 64.533 0.031c17.556 0.11 31.756 14.356 31.756 31.929 0 17.584-14.2 31.831-31.756 31.939l0 0.11-64.533 0 0 31.832 64.532 0L617.56 280.85400000000004zM665.293 760.2470000000001l-6.717-8.395c-0.148-0.156-0.252-0.343-0.398-0.499l-56.799-70.999L409.635 680.354l-56.69 70.875c-0.421 0.406-0.693 0.904-1.084 1.342l-6.14 7.676 1.083 2.17c-0.521 1.967-1.217 3.886-1.217 6.008 0 10.174 6.397 18.77 15.354 22.267l0.757 1.515c0 0 78.545 15.713 143.809 15.978 68.301 0.281 143.81-15.978 143.81-15.978l0.775-1.53c8.899-3.528 15.242-12.11 15.242-22.251 0-2.091-0.687-3.948-1.185-5.866L665.293 760.2470000000001 665.293 760.2470000000001z"  horiz-adv-x="1024" />

    
    <glyph glyph-name="dingwei" unicode="&#58898;" d="M518.649351 34.244156s316.509091 271.293506 316.509091 553.225974C832.498701 757.693506 691.532468 896 518.649351 896S202.14026 757.693506 202.14026 587.47013c0-292.571429 316.509091-553.225974 316.509091-553.225974zM345.766234 579.490909c0 95.750649 77.132468 172.883117 172.883117 172.883117S691.532468 675.241558 691.532468 579.490909s-77.132468-172.883117-172.883117-172.883117-172.883117 79.792208-172.883117 172.883117zM768.664935 201.807792c-21.277922-26.597403-39.896104-53.194805-61.174026-74.472727 220.758442-13.298701 268.633766-58.514286 279.272727-82.451948-10.638961-26.597403-159.584416-90.431169-454.815584-90.431169-295.231169-2.65974-444.176623 63.833766-452.155844 87.771429 7.979221 21.277922 42.555844 63.833766 244.696104 79.792207-18.618182 21.277922-39.896104 47.875325-61.174026 74.472728C98.41039 177.87013 0 137.974026 0 44.883117c0-135.646753 335.127273-170.223377 534.607792-170.223377 199.480519 0 534.607792 37.236364 534.607792 170.223377 0 98.41039-122.348052 140.966234-300.550649 156.924675z"  horiz-adv-x="1069" />

    
    <glyph glyph-name="bukejian" unicode="&#58953;" d="M960.2801105730371 401.7536672047408c-15.53445925925926 31.06891851851852-48.822585723259266 90.98754761007407-104.30279892385185 148.68696754251854-8.876834209185184 8.876834209185184-22.19208430933333 8.876834209185184-31.06891851851852 0-8.876834209185184-8.876834209185184-8.876834209185184-22.19208430933333 0-31.06891851851852 48.822585723259266-48.822585723259266 77.6722962962963-99.86438060562962 93.20675555555555-130.9332991241481-37.72654356859259-73.2338791917037-164.2214268017778-275.18184956207404-406.1151486862222-275.18184956207404-88.76833845096297 0-168.65984390637036 26.630501413925924-239.67451393896295 77.6722962962963-8.876834209185184 6.657625050074073-24.411293468444445 4.438417104592592-31.06891851851852-4.438417104592592-6.657625050074073-8.876834209185184-4.438417104592592-24.411293468444445 4.438417104592592-31.06891851851852 79.89150424177778-57.69941993244444 168.65984390637036-84.32992134637037 266.30501535288886-84.32992134637037 275.18184956207404 0 412.77277494992586 235.2360968343704 448.280110573037 306.2507680805926l2.2192079454814815 2.2192079454814815c2.2192079454814815 6.657625050074073 2.2192079454814815 13.315251313777777 0 19.97287636385185l-2.2192079454814815 2.2192079454814815zM61.50068148148148 377.3423749499258c11.096042154666666-24.411293468444445 37.72654356859259-73.2338791917037 79.89150424177778-124.27567407407408 4.438417104592592-4.438417104592592 11.096042154666666-8.876834209185184 17.753668418370367-8.876834209185184 4.438417104592592 0 11.096042154666666 2.2192079454814815 13.315250100148146 4.438417104592592 8.876834209185184 8.876834209185184 11.096042154666666 22.19208430933333 2.219209159111111 31.06891851851852-35.50733562311111 42.164960673185185-59.91862909155555 84.32992134637037-71.01467124622222 108.74121481481481 37.72654356859259 71.01467124622222 162.00221764266664 266.30501535288886 406.1151498998518 266.30501535288886 71.01467124622222 0 135.37171622874072-15.53445925925926 195.29034410666665-48.822585723259266l6.657626263703703-4.438417104592592c11.096042154666666-6.657625050074073 24.411293468444445-2.2192079454814815 31.06891851851852 8.876834209185184 6.657625050074073 11.096042154666666 2.2192079454814815 24.411293468444445-8.876834209185184 31.06891851851852l-6.657625050074073 4.438417104592592c-66.57625414162963 35.50733562311111-139.81013333333334 53.26100282785185-217.48242962962962 53.26100282785185C232.37973333333332 701.3468102352592 97.00801710459262 472.768338450963 61.50068148148148 401.7536672047408l-2.2192079454814815-2.2192079454814815c-2.2192079454814815-6.657625050074073-2.2192079454814815-13.315251313777777 0-19.97287636385185l2.2192079454814815-2.2192079454814815zM509.7807920545185 259.724325925926c-31.06891851851852 0-62.13783703703704 11.096042154666666-86.54913050548149 33.288126464-8.876834209185184 8.876834209185184-22.19208430933333 6.657625050074073-31.06891851851852-2.2192079454814815-8.876834209185184-8.876834209185184-6.657625050074073-22.19208430933333 2.2192079454814815-31.06891851851852 31.06891851851852-28.849710573037036 73.2338791917037-46.60337777777777 115.3988410785185-46.60337777777777 95.42596350103702 0 170.87905185185184 77.6722962962963 170.87905185185184 170.87905185185184 0 19.97287636385185-2.2192079454814815 37.72654356859259-8.876834209185184 55.48021198696296-4.438417104592592 11.096042154666666-15.53445925925926 17.75366720474074-28.849710573037036 13.315250100148146-11.096042154666666-4.438417104592592-17.75366720474074-15.53445925925926-13.315250100148146-28.84970935940741 4.438417104592592-13.315251313777777 6.657625050074073-26.630501413925924 6.657625050074073-42.164960673185185 2.2192079454814815-66.57625414162963-55.48021198696296-122.05646612859258-126.49488201955555-122.05646612859258zM509.7807920545185 557.0982597973334c-88.76833845096297 0-164.2214268017778-68.7954620871111-170.87905185185184-157.5638005380741 0-13.315251313777777 8.876834209185184-22.19208430933333 19.972875150222222-24.411293468444445h2.219209159111111c11.096042154666666 0 22.19208430933333 8.876834209185184 22.19208430933333 19.97287636385185 4.438417104592592 66.57625414162963 59.91862909155555 117.61804902399999 126.49488323318518 117.61804902399999 15.53445925925926 0 28.849710573037036-2.2192079454814815 44.38416861866666-6.657625050074073 11.096042154666666-4.438417104592592 24.411293468444445 2.2192079454814815 28.849710573037036 13.315250100148146 4.438417104592592 11.096042154666666-2.2192079454814815 24.411293468444445-13.315251313777777 28.849710573037036-19.97287636385185 6.657625050074073-37.72654356859259 8.876834209185184-59.91862787792592 8.876832995555555zM935.8688171045927 696.9083931306667c-6.657625050074073 11.096042154666666-19.97287636385185 13.315251313777777-31.06891851851852 6.657626263703703L68.15830653155552 162.0791532657779c-11.096042154666666-6.657625050074073-13.315251313777777-19.97287636385185-6.657625050074073-31.06891851851852 4.438417104592592-6.657625050074073 11.096042154666666-11.096042154666666 17.75366720474074-11.096042154666666 4.438417104592592 0 8.876834209185184 2.2192079454814815 11.096043368296296 4.438417104592592l838.8608000000002 539.2676569694813c11.096042154666666 8.876834209185184 13.315251313777777 22.19208430933333 6.657625050074073 33.288126464z"  horiz-adv-x="1024" />

    
    <glyph glyph-name="hook" unicode="&#58896;" d="M1139.779207 890.218772a36.132675 36.132675 0 0 1-49.863091-10.839802L489.391063-43.449540999999954 58.689581 296.19760099999996a36.132675 36.132675 0 0 1-44.804517-57.089626l458.162315-361.326747h5.058574a36.132675 36.132675 0 0 1 49.863091 10.839802L1150.619009 840.355681a36.132675 36.132675 0 0 1-10.839802 49.863091z"  horiz-adv-x="1156" />

    
    <glyph glyph-name="icon-" unicode="&#58907;" d="M445.44 174.08c-69.12 0-135.68 28.16-184.32 76.8-102.4 102.4-102.4 268.8 0 368.64 48.64 48.64 115.2 76.8 184.32 76.8s135.68-28.16 184.32-76.8c102.4-102.4 102.4-268.8 0-368.64-48.64-48.64-112.64-76.8-184.32-76.8z m0 473.6c-56.32 0-110.08-23.04-148.48-61.44-81.92-81.92-81.92-215.04 0-296.96 38.4-38.4 92.16-61.44 148.48-61.44s110.08 23.04 148.48 61.44c81.92 81.92 81.92 215.04 0 296.96-38.4 38.4-92.16 61.44-148.48 61.44zM611.6864 305.8688l271.5392-271.5136-36.224-36.1984L575.488 269.6704z"  horiz-adv-x="1024" />

    
    <glyph glyph-name="gouxuan" unicode="&#59183;" d="M1024 896v-1024H0L1024 896zM557.4656 161.518933l107.588267-107.588266a38.229333 38.229333 0 0 1 54.033066-0.136534l26.965334 26.965334-134.656 134.690133a38.126933 38.126933 0 1 1-53.930667-53.930667z m136.021333-27.7504l53.930667-53.930666 170.5984 170.666666a38.161067 38.161067 0 1 1-53.930667 53.896534l-170.5984-170.632534z"  horiz-adv-x="1024" />

    
    <glyph glyph-name="invisible" unicode="&#58900;" d="M941.677 504.29c9.338 14.006 6.225 32.681-6.225 43.575-14.006 10.894-32.681 7.781-43.575-6.225-1.557-1.556-174.3-205.426-379.728-205.426-199.2 0-379.727 205.426-381.283 206.982-10.895 12.45-31.125 14.006-43.576 3.113-12.45-10.894-14.006-31.125-3.113-43.576 3.113-4.668 40.463-46.687 99.6-93.375l-79.37-82.482c-12.45-12.45-10.893-32.681 1.557-43.575 3.113-6.225 10.894-9.338 18.676-9.338 7.78 0 15.562 3.113 21.787 9.338l85.594 88.706c40.463-28.013 88.707-54.47 141.62-73.144l-32.682-110.495c-4.668-17.118 4.67-34.237 21.788-38.906h9.337c14.006 0 26.457 9.338 29.569 23.344l32.681 110.495c24.9-4.669 51.357-7.782 77.813-7.782s52.913 3.113 77.814 7.782l32.68-108.939c3.114-14.006 17.12-23.343 29.57-23.343 3.113 0 6.225 0 7.782 1.556 17.118 4.67 26.456 21.787 21.788 38.906L649.099 300.41999999999996c52.914 18.676 101.157 45.132 141.62 73.144l84.038-87.15c6.225-6.225 14.006-9.338 21.787-9.338 7.781 0 15.563 3.113 21.787 9.337 12.45 12.451 12.45 31.125 1.557 43.576l-79.37 82.481c63.808 46.689 101.16 91.82 101.16 91.82z"  horiz-adv-x="1024" />

    
    <glyph glyph-name="visible" unicode="&#59027;" d="M898.16127791 542.93077469c-98.16083323 98.16083323-233.94998582 159.02054983-383.80885791 159.02054981-149.53166926 0-285.3208219-60.85971661-383.48165514-159.02054981-44.17237494-44.17237494-80.81908604-95.87041378-107.6497137-152.80369709 26.83062777-57.26048603 63.47733881-108.95852485 107.6497137-152.80369702 98.16083323-98.16083323 233.94998582-159.02054983 383.80885787-159.02054982 149.53166926 0 285.3208219 60.85971661 383.48165518 159.02054982 44.17237494 44.17237494 80.81908604 95.87041378 107.64971376 152.80369702-27.15783054 56.93328329-63.47733881 108.63132211-107.64971376 152.80369709z m-538.90297438-35.99230547s22.24978887 111.24894431 147.24124981 106.66810541c12.76090831-0.32720279 23.23139718-11.45209719 22.57699166-24.2130056-0.32720279-12.76090831-11.45209719-23.23139718-24.21300557-22.57699159-85.39992487 3.27202778-100.1240499-71.00300272-100.12404988-71.00300271-2.94482497-12.43370559-16.03293606-20.28657217-28.46664165-17.01454444-12.43370559 2.61762221-20.28657217 15.70573331-17.01454437 28.13943893zM864.78659458 270.37086112c-89.65356101-89.65356101-213.66341361-144.95083043-350.43417458-144.95083043S253.5718064 180.7173001 163.91824539 270.37086112c-35.01069719 35.01069719-64.78614993 75.25663877-88.34474987 119.75621648 23.23139718 44.17237494 53.00684995 84.74551933 88.34474987 119.75621659 43.84517216 44.17237494 96.19761658 79.83747771 154.11250819 104.70488873-33.70188607-40.90034716-53.98845823-93.25279161-53.98845834-150.51327764 0-130.88111099 106.01369987-237.22201361 236.89481091-237.22201359 130.88111099 0 237.22201361 106.01369987 237.22201359 237.22201359 0 64.45894714-25.8490194 123.02824432-67.40377217 165.56460541 73.94782772-24.54020827 140.04278871-65.76775823 194.03124701-119.7562165 35.01069719-35.01069719 64.78614993-75.58384155 88.34474991-119.75621659-23.23139718-44.4995777-53.33405273-84.74551933-88.34474991-119.75621648z"  horiz-adv-x="1024" />

    
    <glyph glyph-name="weixinzhifu" unicode="&#58899;" d="M390.384826 251.181366c-61.289394-37.014577-70.38492 20.78117-70.38492 20.78117l-76.799978 194.168414c-29.575521 92.250326 25.569875 41.592458 25.569875 41.592458s47.284692-38.7614 83.215035-62.373628c35.870107-23.642346 76.799977-6.927057 76.799977-6.927057L930.936197 689.453237C838.294342 814.351083 685.236504 896 511.999849 896 229.195227 896 0 678.70124 0 410.65426c0-154.202308 75.896448-291.418267 194.108178-380.38577l-21.323288-132.728432s-10.390585-38.7614 25.63011-20.78117c24.545875 12.227761 87.10021 56.169395 124.385846 82.88374A535.220548 535.220548 0 0 1 511.999849-74.691479c282.744387 0 511.999849 217.268642 511.99985 485.315622a462.606923 462.606923 0 0 1-53.519043 216.063936c-160.015012-104.267263-532.178667-346.563663-580.09583-375.476595z"  horiz-adv-x="1024" />

    
    <glyph glyph-name="delete" unicode="&#59091;" d="M575.8 385.2l370.4 370.5c17.4 17.4 17.4 45.7 0 63.1s-45.6 17.4-63.1 0L512.7 448.2 142.2 818.7C131 830 114.5 834.4 99.2 830.3S71.8 814.1 67.6 798.7s0.3-31.8 11.5-43.1l370.5-370.5L79.3 14.700000000000045C68 3.3999999999999773 63.6-13 67.8-28.399999999999977a44.39 44.39 0 0 1 31.5-31.5c15.4-4.1 31.8 0.3 43.1 11.5l370.4 370.5 370.4-370.5c17.4-17.3 45.6-17.3 63.1 0 17.4 17.4 17.4 45.6 0 63.1L575.8 385.2z"  horiz-adv-x="1024" />

    
    <glyph glyph-name="github" unicode="&#61876;" d="M347.8 101.2c0-4-4.6-7.2-10.4-7.2-6.6-0.6-11.2 2.6-11.2 7.2 0 4 4.6 7.2 10.4 7.2 6 0.6 11.2-2.6 11.2-7.2z m-62.2 9c-1.4-4 2.6-8.6 8.6-9.8 5.2-2 11.2 0 12.4 4s-2.6 8.6-8.6 10.4c-5.2 1.4-11-0.6-12.4-4.6z m88.4 3.4c-5.8-1.4-9.8-5.2-9.2-9.8 0.6-4 5.8-6.6 11.8-5.2 5.8 1.4 9.8 5.2 9.2 9.2-0.6 3.8-6 6.4-11.8 5.8zM505.6 880C228.2 880 16 669.4 16 392c0-221.8 139.6-411.6 339-478.4 25.6-4.6 34.6 11.2 34.6 24.2 0 12.4-0.6 80.8-0.6 122.8 0 0-140-30-169.4 59.6 0 0-22.8 58.2-55.6 73.2 0 0-45.8 31.4 3.2 30.8 0 0 49.8-4 77.2-51.6 43.8-77.2 117.2-55 145.8-41.8 4.6 32 17.6 54.2 32 67.4-111.8 12.4-224.6 28.6-224.6 221 0 55 15.2 82.6 47.2 117.8-5.2 13-22.2 66.6 5.2 135.8 41.8 13 138-54 138-54 40 11.2 83 17 125.6 17s85.6-5.8 125.6-17c0 0 96.2 67.2 138 54 27.4-69.4 10.4-122.8 5.2-135.8 32-35.4 51.6-63 51.6-117.8 0-193-117.8-208.4-229.6-221 18.4-15.8 34-45.8 34-92.8 0-67.4-0.6-150.8-0.6-167.2 0-13 9.2-28.8 34.6-24.2C872.4-19.6 1008 170.2 1008 392 1008 669.4 783 880 505.6 880zM210.4 190.2c-2.6-2-2-6.6 1.4-10.4 3.2-3.2 7.8-4.6 10.4-2 2.6 2 2 6.6-1.4 10.4-3.2 3.2-7.8 4.6-10.4 2z m-21.6 16.2c-1.4-2.6 0.6-5.8 4.6-7.8 3.2-2 7.2-1.4 8.6 1.4 1.4 2.6-0.6 5.8-4.6 7.8-4 1.2-7.2 0.6-8.6-1.4z m64.8-71.2c-3.2-2.6-2-8.6 2.6-12.4 4.6-4.6 10.4-5.2 13-2 2.6 2.6 1.4 8.6-2.6 12.4-4.4 4.6-10.4 5.2-13 2z m-22.8 29.4c-3.2-2-3.2-7.2 0-11.8 3.2-4.6 8.6-6.6 11.2-4.6 3.2 2.6 3.2 7.8 0 12.4-2.8 4.6-8 6.6-11.2 4z"  horiz-adv-x="1024" />

    
    <glyph glyph-name="weibo" unicode="&#58927;" d="M434.6 634.6c-63 5.3-209.2-42.5-345.8-265.1 0 0-100.2-180.1 103.7-288.1 0 0 170.2-101.2 410.6-30.1 0 0 243.9 80.7 221.6 249.9 0 0-18.5 70.1-104.7 90.6 0 0-26.6 3.5-11.6 30.1 0 0 38.2 77.9-36.4 110 0 0-66.5 15.9-147.2-24.8 0 0-53.1-30.1-27.6 35.4-0.6 0.8 11.8 85.8-62.6 92.1z m242.9-365.3c0-92.1-118.9-193.3-264.4-193.3-171 0-264.4 74.6-264.4 167.5 0 92.1 134.8 180.9 281 180.9 145.8 0 247.8-63 247.8-155.1z m0 0M530.2 237.20000000000005c-4.3-67.3-61.2-119.7-136.6-122.4-91.3-3.5-151.5 38.2-140.9 120.7 8.1 67.3 66.5 124.2 140.9 124.2 75.4-0.1 141.9-40.8 136.6-122.5z m-89.5 18c0 9.9-8.1 17.7-17.7 17.7s-17.7-8.1-17.7-17.7 8.1-17.7 17.7-17.7c9.6-1 17.7 6.8 17.7 17.7z m-47.8-42.8c0 24-22.3 43.5-47.1 40s-48.8-22.3-48.8-46c0-24 20.5-41.7 46-41.7 25.8-1.1 49.9 23.7 49.9 47.7z m279.2 449.5c4.3 1.8 8.1 2.5 12.4 3.5 4.3 0.8 8.9 1.8 14.2 2.5-15.2-1.8-2.5-0.8 0 0 3.5 0 7.1 0.8 11.6 0.8h22.3c4.3 0 8.1-0.8 12.4-0.8-11.6 1.8-3.5 0.8-0.8 0 2.8-0.8 5.3-0.8 8.9-1.8 8.9-1.8 17.7-4.3 26.6-8.1 2.5-0.8 4.3-1.8 7.1-2.5-8.9 3.5-0.8 0 0.8 0 5.3-2.5 10.6-5.3 16.7-8.9 4.3-2.5 9.9-6.1 14.2-8.9 2.5-1.8 4.3-3.5 7.1-5.3-7.1 5.3 0.8-0.8 1.8-1.8 9.9-8.1 18.5-16.7 27.6-26.6 0.8-0.8 7.1-8.9 0.8-0.8 1.8-1.8 2.5-4.3 4.3-6.1 2.5-4.3 5.3-8.9 8.1-12.4 2.5-4.3 4.3-8.9 6.1-13.4 3.5-8.1-2.5 8.1 0 0 0.8-2.5 1.8-5.3 3.5-8.9 2.5-8.1 4.3-16.7 6.1-25.8 0-1.8 0.8-4.3 0.8-6.1-1.8 11.6-0.8 4.3 0 1.8 0.8-4.3 0.8-8.9 0.8-14.2 0-7.1 0-15.2-0.8-22.3 0-3.5-0.8-7.1-0.8-10.6 1.8 14.2 0 0-0.8-2.5-1.8-9.9-4.3-18.5-7.1-27.6-1.8-5.3-8.1-18.5-0.8-2.5-8.1-17.7-5.3-39 13.4-49.6 15.9-8.9 41.7-5.3 49.6 13.4 22.3 48.8 26.6 107.3 11.6 159.6-26.6 94.1-118.9 157.9-213.8 165.7-26.6 1.8-55.9 0-80.7-8.9-18.5-6.1-31.1-24.8-25.8-44.3 2.7-19.5 23.9-33.6 42.6-26.6z m0 0M690.6 561c2.5 0.8 4.3 0.8 7.1 1.8 8.1 1.8-4.3 0 2.5 0 3.5 0 8.1 0.8 11.6 0.8 14.2 0 30.1-3.5 41.7-14.2 1.8-1.8 3.5-3.5 6.1-5.3 0 0 5.3-6.1 2.5-3.5 1.8-1.8 2.5-4.3 3.5-6.1 1-1.8 1.8-2.5 1.8-4.3-0.8 1.8-0.8 1.8 0-0.8 1.8-4.3 2.5-8.9 3.5-13.4 1.8-7.1 0 4.3 0-1.8v-18.7c0-1.8 0-3.5-0.8-4.3 0.8 8.1 0 0.8 0 0-0.8-2.5-0.8-5.3-1.8-8.1-3.5-12.4 4.3-26.6 16.7-29.3 13.4-3.5 25.8 4.3 29.3 16.7 12.4 40 2.5 87-29.3 114.3-28.3 25.8-72.9 34.7-110 24-26.9-9.8-13.5-55.9 15.6-47.8z m0 0"  horiz-adv-x="1024" />

    
    <glyph glyph-name="home_deverror" unicode="&#58930;" d="M767.082667 822.954667c40.725333 40.405333 106.645333 40.512 147.264 0.192l36.373333-36.096a103.317333 103.317333 0 0 0 0.042667-146.794667L695.04 384.042667l255.658667-256.149334a103.466667 103.466667 0 0 0 0.085333-146.944l-36.352-36.096c-40.682667-40.362667-106.56-40.192-147.413333 0.341334L512 200.661333 256.853333-54.95466699999997c-40.704-40.384-106.581333-40.533333-147.264-0.192l-36.352 36.096a103.445333 103.445333 0 0 0-0.064 146.794667l255.786667 256.277333L73.386667 640.106667a103.36 103.36 0 0 0-0.106667 146.944L109.653333 823.146667c40.618667 40.32 106.538667 40.213333 147.413334-0.341334L512 567.381333l255.082667 255.573334zM481.792 476.842667L196.778667 762.389333a19.349333 19.349333 0 0 1-27.008 0.192L133.397333 726.485333a18.069333 18.069333 0 0 1 0.213334-25.941333l285.866666-286.378667a42.666667 42.666667 0 0 0 0-60.288L133.397333 67.32799999999997a18.154667 18.154667 0 0 1-0.064-25.813333l36.352-36.096a19.285333 19.285333 0 0 1 26.88 0.042666l285.226667 285.738667a42.666667 42.666667 0 0 0 60.373333 0l285.077334-285.589333a19.328 19.328 0 0 1 27.029333-0.192l36.352 36.096a18.197333 18.197333 0 0 1-0.213333 25.941333l-285.866667 286.421333a42.666667 42.666667 0 0 0 0 60.288l285.973333 286.506667a18.026667 18.026667 0 0 1 0.085334 25.813333l-36.373334 36.096a19.306667 19.306667 0 0 1-26.88-0.042666L542.208 476.842667a42.666667 42.666667 0 0 0-60.416 0z"  horiz-adv-x="1024" />

    
    <glyph glyph-name="kejian" unicode="&#59037;" d="M512.2 682.1c300.8 0 448.1-299.9 448.1-299.9S814.1 84.60000000000002 512.2 84.60000000000002c-333.4 0-448.1 298.8-448.1 298.8s152 298.7 448.1 298.7z m0-44.3c-224.7 0-361.4-196.4-398.1-256.9 29.7-61.1 143-252.1 398.1-252.1 226.7 0 359.6 191.1 396.9 253.4-37.4 62.7-171 255.6-396.9 255.6zM362.8 381.4c0 84 62.7 149.4 149.4 149.4s149.4-65.3 149.4-149.4c0-84.1-62.7-149.4-149.4-149.4s-149.4 65.4-149.4 149.4z m253 0c0 60-43.6 103.6-103.5 103.6-60 0-103.6-43.5-103.6-103.6 0-60.1 43.6-103.6 103.6-103.6 59.9 0 103.5 43.6 103.5 103.6z"  horiz-adv-x="1024" />

    
    <glyph glyph-name="invisible-eye" unicode="&#59345;" d="M227.2 186.29999999999995l42.5 42.5c-11.1 8.7-21.9 17.8-32.5 27.1-50 44.5-87.5 89.3-105.9 113.1 18.5 23.8 55.8 68.6 105.9 113.1 64.9 57.6 165.2 126.2 274.7 126.2 39.5 0 77.7-8.9 113.5-23L671 631c-53.8 24.7-107.3 37-159.2 37-57.3 0-116.6-15.2-176.1-45.3-46.6-23.4-93.4-56-139.3-96.8C119.3 457.1 71.6 389 69.5 386.2c-7.1-10.3-7.1-24 0-34.2 2-2.8 49.6-71 127.1-139.8 10-8.8 20.2-17.5 30.6-25.9z m600 339.7c-18.2 16.2-37.2 31.6-56.8 46l97.1 97.2c12.4 12.5 12.4 32.6 0 45.1l2.7-2.7c-6 6-14 9.3-22.5 9.3-8.4 0-16.5-3.3-22.4-9.3L213.7 98.79999999999995c-12.4-12.5-12.4-32.6 0-45.1l-2.7 2.7c6-6 14.1-9.3 22.5-9.3s16.5 3.5 22.5 9.4l66 66.1c4.7-2.5 9.3-5 14-7.3 59.5-30 118.8-45.3 176.1-45.3s116.6 15.2 176.1 45.3c46.6 23.4 93.4 56 139.2 96.8 77.3 68.9 125 137 127.1 139.9 7.1 10.3 7.1 24 0 34.2-2.3 2.8-50 70.9-127.3 139.8z m-181-156.9c0-74.2-60.3-134.6-134.3-134.6-22.6 0-44.1 5.7-62.7 15.6L630.7 432c10.2-19.4 15.5-40.9 15.5-62.9z m140.4-113c-64.9-57.6-165.2-126.2-274.7-126.2-51.5 0-100.9 15.2-145.7 37.3l39.4 39.4c31.6-20.8 68.5-31.9 106.3-31.9 107 0 194 87.2 194 194.4 0 39.3-11.7 75.8-31.8 106.5l53.4 53.5c20.5-14.5 40.2-30.1 59.1-46.9 50-44.4 87.5-89.3 105.9-113.1-18.4-23.7-55.9-68.7-105.9-113zM511.9 503.6c9.9 0 19.6-1.1 28.9-3.1l47.3 47.3c-24.1 10.4-49.9 15.6-76.1 15.6-107 0-194-87.2-194-194.4 0-27.1 5.6-52.9 15.6-76.2l47.3 47.3c-2.1 9.5-3.1 19.2-3.1 28.9-0.2 74.3 60 134.6 134.1 134.6z"  horiz-adv-x="1024" />

    
    <glyph glyph-name="home_configration" unicode="&#58881;" d="M894.890667 447.658667H832.341333v165.397333c0 51.242667-48.448 90.602667-99.669333 90.602667H555.008V775.296c0 63.978667-44.437333 115.690667-127.104 115.690667-83.370667 0-128.896-51.733333-128.896-115.690667V703.658667H130.112C78.933333 703.658667 43.008 664.277333 43.008 613.034667V426.325333h63.936c69.056 0 125.162667-58.986667 125.162667-128 0-69.077333-56.106667-128-125.162667-128H43.008v-175.424c0-51.136 35.904-80.576 87.082667-80.576H299.008v73.066667c0 69.034667 58.965333 125.12 128 125.12 69.077333 0 128-56.085333 128-125.12V-85.674667h177.642667c51.136 0 99.690667 44.992 99.690666 96.234667V170.325333h62.549334c64 0 124.970667 82.090667 124.970666 146.005334 0 64-58.346667 131.328-122.304 131.328h-2.666666z"  horiz-adv-x="1024" />

    
    <glyph glyph-name="home_device" unicode="&#58882;" d="M896 849.344c-33.173333 0-64-27.050667-64-60.437333v-786.538667c0-33.344 30.826667-60.394667 64-60.394667s64 27.072 64 60.394667V788.928c0 33.365333-30.826667 60.416-64 60.416zM691.050667 853.674667h-148.714667c-46.464 0-94.336-36.992-94.336-83.456V128.341333h-64V770.218667c0 46.442667-29.994667 83.456-76.416 83.456H158.826667C112.426667 853.674667 85.333333 816.682667 85.333333 770.218667v-749.76c0-46.464 27.093333-84.117333 73.493334-84.117334h148.757333c46.421333 0 76.416 37.674667 76.416 84.117334V43.008h64v-22.549333c0-46.464 47.872-84.117333 94.336-84.117334h148.714667c46.464 0 76.949333 37.674667 76.949333 84.117334V770.218667c0 46.464-30.506667 83.456-76.949333 83.456zM234.666667 54.464c0-11.626667 0.341333-11.456-11.242667-11.456H163.093333c-11.584 0-13.76-0.170667-13.76 11.456v60.330667c0 11.584 2.176 13.546667 13.76 13.546666h60.330667c11.584 0 11.242667-1.962667 11.242667-13.546666v-60.330667zM278.549333 683.008h-94.933333c-22.165333 0-40.085333 20.544-40.085333 42.666667s17.92 42.666667 40.085333 42.666666h94.912c22.122667 0 40.042667-20.544 40.042667-42.666666s-17.898667-42.666667-40.021334-42.666667zM618.666667 54.464c0-11.626667-0.213333-11.456-11.797334-11.456h-60.330666c-11.584 0-13.205333-0.170667-13.205334 11.456v60.330667c0 11.584 1.621333 13.546667 13.205334 13.546666h60.330666c11.584 0 11.797333-1.962667 11.797334-13.546666v-60.330667zM662.037333 683.008h-94.954666c-22.165333 0-40.085333 20.544-40.085334 42.666667s17.92 42.666667 40.085334 42.666666h94.954666c22.08 0 40.042667-20.544 40.042667-42.666666s-17.962667-42.666667-40.042667-42.666667z"  horiz-adv-x="1024" />

    
    <glyph glyph-name="home_devtype" unicode="&#58883;" d="M960 245.333333V789.653333c0 33.514667-30.698667 60.693333-64 60.693334s-64-27.157333-64-60.693334v-478.762666c42.666667-9.514667 85.333333-32.874667 128-65.557334zM568.832 21.504s-5.504 26.922667-5.226667 58.709333c0.192 22.058667-0.384 51.136-0.384 51.136 22.869333 98.581333 98.112 175.765333 204.778667 183.552V770.858667c0 46.656-24.853333 82.474667-71.509333 82.474666h-149.376C500.48 853.333333 448 817.514667 448 770.858667V128h-64V770.858667c0 46.656-26.005333 82.474667-72.661333 82.474666h-149.333334C115.328 853.333333 64 817.514667 64 770.858667v-753.024c0-46.677333 51.328-103.168 98.005333-103.168h149.333334c46.677333 0 72.661333 56.448 72.661333 103.168V42.666667h64v-24.832c0-46.677333 52.48-103.168 99.114667-103.168h68.010666c-22.421333 42.666667-38.506667 70.549333-46.293333 106.837333zM572.010667 746.666667h95.402666c22.208 0 40.234667-9.792 40.234667-32s-18.026667-32-40.234667-32h-95.402666c-22.208 0-40.256 9.792-40.256 32s18.026667 32 40.256 32zM234.666667 51.349333c0-11.690667-4.821333-30.016-16.469334-30.016H153.749333c-11.669333 0-25.749333 18.325333-25.749333 30.016v64.426667c0 11.690667 14.08 12.224 25.749333 12.224h64.448c11.648 0 16.469333-0.533333 16.469334-12.224v-64.426667zM282.218667 682.666667H186.837333c-22.208 0-40.256 9.792-40.256 32s18.048 32 40.256 32h95.381334c22.208 0 40.256-9.792 40.256-32s-18.048-32-40.256-32zM802.282667 251.093333a174.4 174.4 0 0 1-174.421334-174.442666 174.4 174.4 0 0 1 174.421334-174.421334 174.4 174.4 0 0 1 174.421333 174.421334c-0.021333 96.256-78.101333 174.442667-174.421333 174.442666z m-67.946667-287.104a58.666667 58.666667 0 1 0 0 117.397334 58.666667 58.666667 0 0 0 0-117.397334z m0 142.677334l70.634667 122.261333 70.656-122.261333h-141.290667z m76.330667-128v85.333333h106.666666v-85.333333h-106.666666z"  horiz-adv-x="1024" />

    
    <glyph glyph-name="home_project" unicode="&#58884;" d="M42.666667 682.666667V757.333333c0 45.098667 64 74.666667 106.666666 74.666667h444.842667c50.496 0 66.453333-35.669333 66.453333-35.669333l58.922667-113.664H42.666667z m938.666666-672c0-45.034667-18.88-96-64-96h-768c-42.666667 0-106.666667 50.965333-106.666666 96V618.666667h874.666666c64 0 64-74.666667 64-74.666667v-533.333333z m-149.333333 149.290666c0 31.082667-24.362667 53.376-54.378667 53.376H267.669333c-30.016 0-54.336-22.293333-54.336-53.376 0-30.997333 24.341333-53.290667 54.336-53.290666h509.952c30.016 0 54.378667 22.293333 54.378667 53.290666zM832 394.666667c0 31.018667-24.362667 53.333333-54.378667 53.333333H267.669333C237.674667 448 213.333333 425.728 213.333333 394.666667c0-31.104 24.341333-53.333333 54.336-53.333334h509.952c30.016 0 54.378667 22.293333 54.378667 53.333334z"  horiz-adv-x="1024" />

    
    <glyph glyph-name="home_trigger" unicode="&#58885;" d="M939.562667 704c0 64-51.157333 112.341333-114.282667 112.341333-63.168 0-104.170667-24.277333-203.669333-24.277333S429.653333 832 342.229333 832c-87.381333 0-156.757333-15.658667-156.757333-15.658667-14.186667-4.416-27.562667-9.344-39.850667-14.997333-0.426667 19.264-19.648 34.752-40.362666 34.752-20.970667 0-40.362667-15.872-40.362667-35.434667v-870.122666c0-19.584 11.029333-35.413333 31.978667-35.413334 20.992 0 32.021333 15.829333 32.021333 35.413334v93.674666c42.666667 9.621333 150.208 39.786667 234.666667 39.786667 102.357333 0 184.618667-42.666667 298.666666-42.666667 129.130667 0 214.634667 21.333333 233.130667 33.792C918.229333 64 939.562667 106.666667 939.562667 149.333333v554.666667z m-640-448h-85.333334v256h85.333334v-256z m-27.733334 285.248c-23.850667 0-43.413333 20.373333-43.413333 45.269333 0 24.917333 19.562667 45.290667 43.413333 45.290667s43.392-20.373333 43.392-45.290667c-0.021333-24.896-19.562667-45.269333-43.392-45.269333z m219.733334 27.328c0-8-2.154667-13.909333-9.621334-13.909333h-13.141333c-10.218667 0-19.925333-12.992-19.925333-23.104v-19.562667h31.381333c8.256 0 11.285333-4.352 11.285333-12.928v-29.696c0-16.533333-10.965333-21.376-10.965333-21.376H448.896v-169.066667c0-7.530667-2.026667-22.933333-9.237333-22.933333h-47.253334c-8 0-28.864 15.573333-28.864 23.701333V280.149333v0.448V448h5.376c-7.893333 0-26.709333 13.034667-26.709333 21.376v29.717333c0 8.597333 19.2 12.906667 27.498667 12.906667H363.562667v25.365333c0 35.733333 36.117333 81.301333 91.242666 81.301334h25.344c8.277333 0 11.413333-11.498667 11.413334-20.117334V565.333333v3.242667z m158.869333-302.613333a4.48 4.48 0 0 1 0.384-0.576 10.389333 10.389333 0 0 0 0.384-2.858667c0-2.88-3.413333-6.528-7.573333-6.528h-38.250667c-5.717333 0-10.581333 3.349333-13.290667 6.442667-0.085333 0.128-0.213333 0.896-0.341333 0.938666-0.170667 0.170667-0.298667 0.682667-0.448 0.896a1.002667 1.002667 0 0 0-0.085333 0.341334c-4.672 6.293333-7.872 13.162667-10.837334 19.968-16.789333 38.378667-16.448 76.992-16.448 116.608 0 35.669333 15.616 78.293333 27.285334 93.909333l0.085333 0.128 0.448 0.597333c0.128 0.128 0.256-5.056 0.341333-4.949333 2.709333 3.072 7.573333-0.170667 13.290667-0.170667h38.250667c4.16 0 7.573333 2.986667 7.573333 0.106667 0-0.533333-0.128 1.621333-0.384 1.109333-0.128-0.234667-0.256 0.874667-0.384 0.661334a203.029333 203.029333 0 0 1-19.370667-45.973334c-3.584-12.586667-6.08-24.981333-7.616-37.76-5.888-48.384 1.450667-97.386667 26.986667-142.890666z m155.221333 18.666666c-2.965333-6.741333-6.165333-13.589333-10.837333-19.882666-0.042667-0.042667-0.042667-0.085333-0.128-0.128-0.128-0.213333-0.256-0.448-0.384-0.576s-0.213333-1.472-0.384-1.6c-2.709333-3.093333-7.573333-6.442667-13.333333-6.442667h-38.208c-4.16 0-7.552 3.648-7.552 6.528a7.68 7.68 0 0 0 0.341333 2.154667c0.128 0.256 0.298667 0.768 0.426667 0.981333 25.536 45.461333 32.874667 95.04 27.050666 143.274667a249.813333 249.813333 0 0 1-7.573333 38.186666 208.533333 208.533333 0 0 1-19.413333 46.656c-0.085333 0.213333-0.256 0.448-0.384 0.682667-0.256 0.490667-0.384-4.245333-0.384-3.690667 0 2.858667 3.370667-0.085333 7.573333-0.085333h38.250667c5.717333 0 10.581333 3.221333 13.333333 0.170667 0.085333-0.106667 0.213333 2.432 0.298667 2.304 0.170667-0.192 0.298667 0.938667 0.426666 0.746666 0.085333-0.042667 0.085333 0.554667 0.170667 0.533334 11.669333-15.616 27.285333-57.92 27.285333-93.568-0.085333-39.594667 0.170667-77.866667-16.576-116.245334z"  horiz-adv-x="1024" />

    
    <glyph glyph-name="home_trigger_run" unicode="&#58886;" d="M758.890667 267.370667c78.442667 0 164.010667-50.965333 199.338666-115.114667 3.413333 10.837333 2.666667 30.698667 2.666667 42.666667v533.333333c0 63.018667-65.792 126.869333-128 126.869333-62.165333 0-109.248-30.165333-207.210667-30.165333-97.984 0-197.397333 51.498667-283.456 51.498667S195.285333 848.853333 195.285333 848.853333c-13.930667-4.373333-27.285333-9.216-39.466666-14.741333-0.362667 18.944-14.357333 34.218667-34.773334 34.218667-20.672 0-34.816-15.616-34.816-34.901334v-877.674666c0-19.285333 11.306667-34.922667 32-34.922667 20.672 0 32 15.573333 32 34.922667v113.216c42.666667 9.450667 130.197333 39.509333 213.333334 39.509333 63.808 0 127.808-22.912 186.581333-37.674667 5.802667 109.525333 97.770667 196.565333 208.746667 196.565334zM299.562667 364.458667h-64v256h64v-256z m-38.997334 272.96c-23.530667 0-42.752 20.053333-42.752 44.565333 0 24.490667 19.221333 44.565333 42.752 44.565333s42.752-20.074667 42.752-44.565333c0-24.512-19.242667-44.565333-42.752-44.565333z m490.090667-130.069334a241.834667 241.834667 0 0 1-7.552 37.504 201.813333 201.813333 0 0 1-19.114667 45.888c-0.128 0.213333-0.213333 0.448-0.362666 0.661334a5.632 5.632 0 0 0-0.362667 2.069333c0 2.816 3.328 5.653333 7.509333 5.653333h37.674667c5.610667 0 10.410667-2.538667 13.12-5.546666 0.085333-0.149333 0.170667-0.533333 0.256-0.618667 0.170667-0.170667 0.341333-0.490667 0.448-0.682667l0.085333-0.234666c11.456-15.338667 26.88-57.322667 26.88-92.437334 0-38.997333 0.298667-76.992-16.256-114.794666-2.922667-6.677333-6.037333-13.354667-10.624-19.562667l-0.085333-0.170667a6.869333 6.869333 0 0 0-0.448-0.512c-0.085333-0.106667-0.170667-8.277333-0.256-8.405333-2.709333-3.008-7.552-13.034667-13.12-13.034667h-37.674667c-4.117333 0-7.509333 10.325333-7.509333 13.12 0 0.533333 0.106667 5.098667 0.362667 5.546667 0.149333 0.213333 0.234667 2.432 0.362666 2.645333 25.216 44.714667 32.426667 95.381333 26.666667 142.912z m-195.584-7.808c0 35.114667 15.402667 77.077333 26.837333 92.416l0.128 0.149334a3.498667 3.498667 0 0 0 0.448 0.533333c0.085333 0.106667 0.170667 0.789333 0.256 0.917333a17.984 17.984 0 0 0 13.12 5.568h37.632c4.16 0 7.530667-2.858667 7.530667-5.674666a4.906667 4.906667 0 0 0-0.32-1.770667c-0.128-0.234667-0.256-0.597333-0.384-0.810667a206.378667 206.378667 0 0 1-19.114667-45.973333 254.72 254.72 0 0 1-7.552-37.525333c-5.781333-47.530667 1.429333-96.234667 26.624-140.928l0.384-0.64c0.234667-0.469333 0.341333-9.002667 0.341334-9.514667 0-2.837333-3.328-13.141333-7.509334-13.141333h-37.674666c-5.589333 0-10.410667 10.069333-13.077334 13.013333-0.085333 0.128-0.213333 4.309333-0.32 4.352-0.170667 0.170667-0.32 2.346667-0.448 2.517333-0.085333 0.042667-0.085333 1.130667-0.128 1.173334-4.586667 6.208-7.68 13.397333-10.624 20.010666-16.512 37.845333-16.192 76.330667-16.149333 115.328zM470.229333 621.589333c21.333333 0 21.333333-17.237333 21.333334-25.706666v-29.226667c0-16.277333-11.818667-10.197333-11.818667-10.197333H448.896v-177.258667c0-7.445333-2.304-14.741333-9.472-14.741333h-46.485333c-7.872 0-10.944 6.890667-11.328 15.018666l3.285333 0.469334v0.405333 0.448V556.458667h-15.04c-7.765333 0-6.293333 1.984-6.293333 10.197333v29.248c0 8.469333-1.109333 24.554667 7.04 24.554667h14.293333v13.12c0 35.2 15.232 72.213333 69.504 72.213333h24.981333c8.128 0 12.181333-3.477333 12.181334-11.946667v-35.029333c0-7.893333-3.178667-17.024-10.538667-17.024H468.096c-10.048 0-19.2-3.925333-19.2-13.909333v-7.424h21.333333v1.130666zM762.346667 195.626667a148.586667 148.586667 0 0 1-148.586667-148.629334 148.565333 148.565333 0 0 1 148.586667-148.629333 148.629333 148.629333 0 1 1 0 297.258667z m-5.930667-241.066667c-6.485333-6.677333-15.317333-16.768-24.554667-16.768h-0.384c-9.216 0-18.005333 9.770667-24.448 16.277333l-62.869333 65.941334c-13.504 13.504-13.504 36.928 0 50.389333 13.546667 13.589333 35.413333 14.336 48.96 0.810667l37.866667-37.525334 88.448 92.074667a34.581333 34.581333 0 0 0 48.917333 1.066667c13.781333-13.226667 14.208-38.144 0.938667-51.968l-112.874667-120.298667z"  horiz-adv-x="1024" />

    
    <glyph glyph-name="home_trigger_close" unicode="&#58887;" d="M779.882667 189.546667a148.096 148.096 0 0 1 0-296.149334 148.074667 148.074667 0 0 1 0 296.149334z m88.597333-181.589334a39.018667 39.018667 0 0 0-55.168-55.168l-33.429333 33.450667-33.450667-33.450667a39.018667 39.018667 0 0 0-55.210667 55.168l33.450667 33.450667L691.2 74.88a39.018667 39.018667 0 0 0 55.210667 55.168l33.408-33.450667 33.450666 33.450667a39.018667 39.018667 0 0 0 55.168-55.168l-33.408-33.450667 33.450667-33.472zM780.544 268.117333C906.666667 256 970.666667 170.666667 970.666667 170.666667s10.666667-12.096 10.666666 0v576c0 63.765333-65.066667 106.666667-128 106.666666-62.890667 0-109.781333-20.970667-208.938666-20.970666S449.728 874.666667 362.666667 874.666667c-87.082667 0-152.768-18.112-152.768-18.112-14.101333-4.416-27.434667-9.322667-39.722667-14.912-0.426667 19.178667-21.76 34.624-42.410667 34.624-20.928 0-42.432-15.808-42.432-35.306667v-888.192c0-19.498667 11.114667-35.285333 32-35.285333s32 15.786667 32 35.285333V64c42.666667 9.578667 149.205333 40.384 233.365334 40.384 64.576 0 112.512-25.514667 171.968-40.384 5.76 110.762667 114.133333 214.869333 225.877333 204.117333zM298.666667 362.666667h-64v256h64v-256z m-22.4 279.893333c-23.786667 0-43.264 20.309333-43.264 45.098667s19.477333 45.098667 43.264 45.098666c23.765333 0 43.221333-20.288 43.221333-45.098666s-19.456-45.098667-43.221333-45.098667z m495.893333-131.648a250.261333 250.261333 0 0 1-7.573333 37.973333 205.653333 205.653333 0 0 1-19.328 46.442667l-0.362667 0.661333c-0.234667 0.448-0.362667-1.685333-0.362667-1.152 0 2.858667 3.370667 2.496 7.552 2.496h38.101334c5.674667 0 10.56 0.618667 13.248-2.389333 0.106667-0.128 0.192 1.088 0.298666 1.002667 0.170667-0.192 0.341333 0.298667 0.448 0.085333 0.042667-0.042667 0.064 0.234667 0.106667 0.192 11.626667-15.552 27.178667-57.813333 27.178667-93.354667 0.042667-39.466667 0.298667-77.802667-16.448-116.032-3.008-6.741333-6.101333-13.482667-10.773334-19.797333-0.042667-0.042667-0.064-0.085333-0.149333-0.128a2.133333 2.133333 0 0 0-0.426667-0.533333c-0.106667-0.128-0.192 0.618667-0.298666 0.490666-2.688-3.050667-7.616-4.202667-13.248-4.202666h-38.101334c-4.181333 0-7.594667 1.450667-7.594666 4.309333 0 0.512 0.128 0.597333 0.405333 1.109333 0.128 0.213333 0.234667 0.256 0.405333 0.448 25.514667 45.248 32.810667 94.293333 26.922667 142.378667z m-197.952-7.872c0 35.541333 15.573333 77.994667 27.2 93.525333 0.042667 0.042667 0.042667 0.085333 0.128 0.128l0.426667 0.576c0.085333 0.085333 0.213333-2.453333 0.298666-2.325333 2.709333 3.029333 7.616 2.389333 13.248 2.389333h38.122667c4.181333 0 7.573333 0.362667 7.573333-2.496 0-0.512-0.128 0.277333-0.384-0.170666-0.085333-0.234667-0.256 0.213333-0.405333 0a206.890667 206.890667 0 0 1-19.264-46.101334 247.744 247.744 0 0 1-7.616-37.802666c-5.824-48.085333 1.450667-97.258667 26.944-142.506667l0.405333-0.618667c0.256-0.448 0.384-0.128 0.384-0.661333 0-2.837333-3.392-4.288-7.573333-4.288h-38.122667c-5.632 0-10.538667 1.258667-13.205333 4.202667-0.128 0.128-0.213333-0.170667-0.341333-0.042667-0.149333 0.192-0.298667 0.170667-0.426667 0.362667-0.085333 0.042667-0.128 0-0.170667 0.042666-4.629333 6.314667-7.765333 13.013333-10.752 19.797334-16.725333 38.144-16.469333 76.522667-16.469333 115.989333z m-76.522667 115.626667c8.213333 0 14.314667-9.578667 14.314667-18.154667v-29.568c0-16.490667-13.909333-16.277333-13.909333-16.277333H469.333333v-173.44c0-7.530667-4.885333-18.56-12.074666-18.56H410.24c-7.957333 0-20.138667 8.832-20.586667 17.002666l-5.653333 2.325334v0.384 0.448V554.666667h2.88c-7.872 0-24.213333 7.957333-24.213333 16.256V600.533333c0 8.576 16.725333 18.133333 24.96 18.133334h-3.626667v20.032c0 35.605333 33.493333 86.634667 88.426667 86.634666h25.301333c8.213333 0 14.272-17.088 14.272-25.642666v-35.456c0-7.978667-5.141333-24.234667-12.586667-24.234667h-13.098666c-10.176 0-16.981333 3.029333-16.981334-7.061333v-14.272h28.352z"  horiz-adv-x="1024" />

    
    <glyph glyph-name="sidemenu_data" unicode="&#58888;" d="M279.272727 151.272727v558.545455h-93.090909v-651.636364h698.181818v93.090909zM325.818182 384h139.636363v-186.181818h-139.636363zM512 709.818182h139.636364v-512h-139.636364zM698.181818 570.181818h139.636364v-372.363636h-139.636364z"  horiz-adv-x="1024" />

    
    <glyph glyph-name="sidemenu_home" unicode="&#58889;" d="M545.000727 757.806545L46.545455 292.352h139.636363l358.818909 325.818182 339.362909-325.818182h139.636364l-478.999273 465.454545zM232.727273 269.079273v-256h232.727272v186.181818h139.636364v-186.181818h232.727273V269.079273l-292.817455 279.272727L232.727273 269.079273z"  horiz-adv-x="1024" />

    
    <glyph glyph-name="sidemenu_project" unicode="&#58890;" d="M186.181818 756.363636h325.818182v-325.818181h-325.818182zM186.181818 384h325.818182v-325.818182h-325.818182zM558.545455 384h325.818181v-325.818182h-325.818181zM558.545455 756.363636v-325.818181h325.818181v325.818181h-325.818181z m279.272727-279.272727h-232.727273v232.727273h232.727273v-232.727273z"  horiz-adv-x="1024" />

    
    <glyph glyph-name="sidemenu_system" unicode="&#58891;" d="M526.382545 332.055273l34.117819-32.442182-21.922909-21.271273s-16.011636-16.384 4.840727-37.376l171.752727-165.934545s16.430545-14.429091 34.443636-2.001455l86.062546 81.035637s15.173818 19.781818-5.073455 37.794909l-170.263272 163.933091s-18.525091 17.640727-39.144728 2.606545l-22.341818-22.248727-35.84 34.443636-36.631273-38.539636z m-20.154181 95.464727L325.585455 604.253091V658.850909L213.410909 721.501091 157.928727 670.673455l64.698182-101.748364 57.204364-0.372364 183.156363-173.847272 43.240728 32.814545z m-300.497455-297.192727s0 27.089455 29.137455 27.089454c0 0 26.065455-0.837818 26.903272-27.089454 0 0-0.837818-24.622545-28.020363-26.205091l-24.250182-23.365818s35.374545-32.023273 75.496727 0l328.098909 342.341818s35.886545-23.412364 89.832728-22.946909c0 0 65.954909-2.513455 117.527272 41.192727 0 0 100.817455 76.986182 49.152 197.306182l-117.387636-110.405818-99.514182 95.697454 117.341091 109.335273s-74.658909 42.589091-175.709091-19.176727c0 0-52.270545-35.560727-67.956364-99.514182 0 0-23.645091-76.008727 29.230546-144.290909l-369.152-294.632728s-23.04-21.829818-11.776-54.085818l31.045818 8.750546z m0 0s2.280727-25.739636 28.066909-26.205091l-24.250182-23.365818s-31.930182 26.577455-34.816 40.913454l30.999273 8.657455z"  horiz-adv-x="1024" />

    
    <glyph glyph-name="sidemenu_trigger" unicode="&#58892;" d="M884.363636 662.528h-186.181818l-139.636363 46.545455h-372.363637v-698.181819h93.090909v186.181819h139.636364l139.636364-46.545455h325.818181l-139.636363 279.272727 139.636363 232.727273z m-443.205818-329.728L316.462545 488.866909l53.294546 44.357818 79.173818-98.862545 173.521455 154.717091 47.522909-50.734546-228.817455-205.544727z"  horiz-adv-x="1024" />

    
    <glyph glyph-name="sidemenu_device" unicode="&#58893;" d="M186.181818 756.363636v-325.818181h698.181818v325.818181h-698.181818z m279.272727-186.181818h-186.181818v93.090909h186.181818v-93.090909zM186.181818 337.454545h698.181818v-93.090909h-698.181818zM186.181818 151.272727h698.181818v-93.090909h-698.181818z"  horiz-adv-x="1024" />

    
    <glyph glyph-name="sidemenu_user" unicode="&#58894;" d="M641.303273 347.229091a1234.757818 1234.757818 0 0 0-10.379637 3.118545c-12.706909 4.142545-26.018909 7.354182-38.353454 12.613819-14.382545 6.097455-28.020364 13.917091-42.123637 20.619636-3.258182 1.582545-4.002909 3.537455-4.002909 6.842182 0.139636 14.615273 0.279273 29.370182-0.046545 44.032-0.093091 4.282182 1.349818 6.749091 4.747636 9.355636 17.454545 13.498182 31.511273 29.416727 36.305455 51.851636 0.279273 1.163636 2.513455 2.653091 3.816727 2.746182 8.797091 0.605091 15.080727 5.492364 20.386909 11.822546 12.148364 14.568727 18.757818 31.883636 25.460364 49.338182 3.816727 10.146909 2.327273 19.735273-1.303273 29.27709a12.194909 12.194909 0 0 1-12.893091 8.61091c-6.376727-0.279273-12.706909-0.046545-18.292363-0.046546 1.117091 30.301091 0.093091 82.525091 0.884363 112.826182 0.186182 7.307636 1.582545-7.121455 0 0-11.636364 50.967273-44.730182 78.708364-94.766545 89.367273a134.516364 134.516364 0 0 1-28.206546 3.304727h-25.693091c-7.261091 0-14.429091-0.418909-21.643636-1.163636-19.037091-2.048-37.934545-4.514909-55.156364-13.498182a68.282182 68.282182 0 0 1-16.337454-11.543273c-9.402182-9.309091-11.915636-20.759273-7.819637-33.885091-2.187636-1.582545-4.468364-3.025455-6.656-4.747636-12.846545-9.914182-18.152727-23.738182-18.944-39.191273a404.759273 404.759273 0 0 1 6.981819-105.192727l0.325818-2.094546-11.869091 3.630546c-12.520727 4.002909-24.296727-2.001455-27.089455-14.941091-1.396364-6.562909-1.210182-13.870545 0.093091-20.48 3.770182-18.618182 12.334545-35.002182 26.065455-48.407273 7.074909-6.935273 15.220364-12.148364 25.506909-12.660364 2.56-0.139636 3.258182-1.210182 3.397818-3.67709 1.349818-24.250182 13.777455-41.611636 33.885091-54.225455 1.396364-0.930909 2.746182-3.211636 2.792727-4.887273 0.325818-15.313455 0.372364-30.72 0.186182-45.986909 0-1.536-1.861818-3.584-3.397818-4.514909-31.418182-18.711273-65.489455-30.906182-100.491636-41.192727-30.440727-8.983273-60.834909-18.432-90.717091-28.811637-27.601455-9.634909-45.381818-30.301091-51.665455-58.554181-0.744727-2.792727-3.909818-5.632-3.909818-8.517819v-72.238545c0-7.261091 4.561455-24.855273 4.980364-24.855273h422.213818c-6.656 46.545455-1.536 73.402182 11.636363 107.473455s34.164364 64.093091 62.091637 88.482909zM953.297455 203.310545c-0.651636 15.732364-2.094545 16.756364-17.640728 16.197819a31.418182 31.418182 0 0 0-5.911272 0.186181 27.880727 27.880727 0 0 0-19.735273 10.845091c-10.007273 13.172364-7.819636 29.789091 5.259636 41.006546 8.471273 7.307636 8.750545 11.636364 0.977455 19.688727a928.581818 928.581818 0 0 1-28.206546 27.601455c-11.264 10.519273-13.358545 10.100364-23.784727-1.536a27.461818 27.461818 0 0 0-29.090909-8.843637c-11.636364 3.025455-19.549091 10.24-21.364364 22.574546-0.744727 4.701091-0.558545 9.448727-0.837818 14.289454-0.232727 4.980364-2.932364 7.912727-7.540364 8.890182a35.653818 35.653818 0 0 1-6.842181 0.977455 164.910545 164.910545 0 0 1-38.912-0.744728c-12.427636-1.768727-16.523636-2.653091-15.080728-17.640727a28.532364 28.532364 0 0 0-16.989091-29.184c-11.357091-5.12-23.086545-2.885818-32.628363 6.423273-2.001455 2.001455-3.723636 4.189091-5.818182 6.050909-4.375273 3.816727-9.262545 4.096-13.358545 0.093091-11.822545-11.729455-23.458909-23.598545-34.816-35.84-5.073455-5.399273-4.468364-9.309091 0.837818-14.568727 1.722182-1.722182 3.723636-3.165091 5.538909-4.887273a27.787636 27.787636 0 0 0 8.610909-28.253091c-2.699636-10.798545-9.076364-18.385455-20.061091-20.945455-4.840727-1.117091-10.100364-0.884364-15.173818-0.977454-7.400727-0.186182-10.565818-2.56-11.729455-9.914182a147.735273 147.735273 0 0 1 0-45.288727c2.327273-13.824 4.328727-15.266909 18.245818-13.777455a28.951273 28.951273 0 0 0 31.697455-27.461818c0.465455-11.031273-4.840727-19.037091-12.893091-25.972364-7.447273-6.190545-7.726545-10.891636-0.977454-17.826909 9.821091-10.007273 19.735273-19.968 30.021818-29.463272 10.519273-9.681455 13.451636-9.169455 22.621091 1.861818l1.629091 1.861818a27.554909 27.554909 0 0 0 23.552 8.983273c18.013091-2.048 28.811636-15.266909 26.71709-33.559273-0.651636-5.911273 0.279273-12.613818 6.283637-12.613818h50.455273c13.637818 0 12.986182 5.073455 12.008727 16.290909a28.020364 28.020364 0 0 0 7.168 22.993454c12.8 14.056727 31.464727 12.753455 45.195636-2.653091 7.633455-8.517818 11.915636-8.890182 20.061091-0.744727 9.216 9.355636 18.432 18.711273 27.554909 28.299637 10.100364 10.705455 9.728 13.917091-1.629091 23.319272a28.113455 28.113455 0 0 0-10.007272 28.346182 26.624 26.624 0 0 0 19.874909 21.829818c4.468364 1.163636 9.309091 1.163636 14.103272 0.977455 9.448727-0.186182 13.265455 2.978909 13.265455 12.381091-0.372364 13.730909-0.093091 27.229091-0.651636 40.727272z m-172.916364-95.511272a74.845091 74.845091 0 0 0-73.541818 74.612363 74.472727 74.472727 0 0 0 74.193454 74.333091c40.820364-0.186182 74.798545-33.885091 74.705455-74.053818a74.984727 74.984727 0 0 0-75.357091-74.891636z"  horiz-adv-x="1024" />

    
    <glyph glyph-name="arrow-down" unicode="&#59148;" d="M945.34144 423.63392c9.984 9.984 26.15296 10.01472 36.11136 0.05632 9.95328-9.95328 9.9328-26.12224-0.05632-36.10624l-397.824-397.824c-39.94624-39.94624-104.61184-40.04864-144.4352-0.22528L42.5472 386.11968c-9.95328 9.9584-9.9328 26.12224 0.05632 36.11136 9.984 9.984 26.15296 10.0096 36.11136 0.0512l396.58496-396.57984c19.9168-19.9168 52.24448-19.8656 72.2176 0.11264l397.824 397.824z m0 378.48064c9.984 9.984 26.15296 10.01472 36.11136 0.05632 9.95328-9.95328 9.9328-26.12224-0.05632-36.10624l-397.824-397.824c-39.94624-39.94624-104.61184-40.04864-144.4352-0.22528L42.5472 764.60032c-9.95328 9.9584-9.9328 26.12224 0.05632 36.11136 9.984 9.984 26.15296 10.0096 36.11136 0.0512l396.58496-396.57984c19.9168-19.9168 52.24448-19.8656 72.2176 0.11264l397.824 397.824z"  horiz-adv-x="1024" />

    
    <glyph glyph-name="event-note" unicode="&#60458;" d="M725.333333 469.333333H298.666667v-85.333333h426.666666v85.333333z m85.333334 298.666667h-42.666667V853.333333h-85.333333v-85.333333H341.333333V853.333333h-85.333333v-85.333333h-42.666667c-47.146667 0-84.906667-38.186667-84.906666-85.333333L128 85.333333c0-47.146667 38.186667-85.333333 85.333333-85.333333h597.333334c47.146667 0 85.333333 38.186667 85.333333 85.333333V682.666667c0 47.146667-38.186667 85.333333-85.333333 85.333333z m0-682.666667H213.333333V554.666667h597.333334v-469.333334zM597.333333 298.666667H298.666667v-85.333334h298.666666v85.333334z"  horiz-adv-x="1024" />

    
    <glyph glyph-name="sidemenu_run" unicode="&#58895;" d="M512 637.354667h85.333333v-426.666667h-85.333333zM597.333333 552.021333h85.333334v-256h-85.333334zM682.666667 466.688h85.333333v-85.333333h-85.333333zM256 637.354667h85.333333v-426.666667h-85.333333zM341.333333 552.021333h85.333334v-256h-85.333334zM426.666667 466.688h85.333333v-85.333333h-85.333333z"  horiz-adv-x="1024" />

    
    <glyph glyph-name="sidemenu_close" unicode="&#58897;" d="M429.312 640h85.333333v-426.666667h-85.333333zM343.978667 554.666667h85.333333v-256h-85.333333zM258.645333 469.333333h85.333334v-85.333333h-85.333334zM685.312 640h85.333333v-426.666667h-85.333333zM599.978667 554.666667h85.333333v-256h-85.333333zM514.645333 469.333333h85.333334v-85.333333h-85.333334z"  horiz-adv-x="1024" />

    
    <glyph glyph-name="edit1" unicode="&#58902;" d="M466.3808 137.8816l338.432 401.4592a61.2864 61.2864 0 0 1-7.3216 86.1696l-124.672 105.3184a61.2864 61.2864 0 0 1-86.1696-7.3216l-338.688-401.5104-19.5584-214.016a24.1152 24.1152 0 0 1 30.3104-25.5488l207.6672 55.4496z m95.7952 480.7168l143.5648-120.9344-245.1968-290.7648-143.5136 121.1392 245.1456 290.56z m79.0016 74.8032l124.8256-105.1648a12.2368 12.2368 0 0 0 1.3824-17.2032l-30.4128-36.1472-143.36 120.9856 30.3616 36.1472a12.3904 12.3904 0 0 0 17.2032 1.3824zM279.9104 138.3424l13.3632 145.5104 127.9488-107.776-141.312-37.7344z m0 0"  horiz-adv-x="1024" />

    
    <glyph glyph-name="home_event" unicode="&#58903;" d="M824.384 234.66666699999996a163.050667 163.050667 0 1 1 0-326.101334 163.050667 163.050667 0 0 1 0 326.101334z m-34.773333-49.856a34.773333 34.773333 0 0 0 69.546666 0v-116.522667a34.773333 34.773333 0 0 0-69.546666 0v116.522667z m34.773333-262.442667a42.474667 42.474667 0 1 0 0 84.949333 42.474667 42.474667 0 0 0 0-84.949333zM896 789.333333H682.666667c-37.525333 45.994667-105.408 83.114667-169.386667 83.114667-63.978667 0-134.421333-37.12-171.946667-83.114667H128C89.472 789.333333 42.666667 746.666667 42.666667 704v-725.333333c0-42.666667 42.666667-85.333333 85.333333-85.333334h533.333333c-38.208 41.877333-75.370667 106.901333-75.370666 168.213334 0 129.898667 104.789333 235.178667 234.069333 235.178666 60.224 0 119.829333-24.512 161.322667-62.058666V704C981.333333 740.437333 938.666667 789.333333 896 789.333333zM514.496 827.52a48.042667 48.042667 0 1 0 0-96.085333 48.042667 48.042667 0 0 0 0 96.085333zM405.333333 106.66666699999996h-170.666666c-24.405333 0-42.666667 18.282667-42.666667 42.666666 0 24.405333 18.261333 42.666667 42.666667 42.666667h170.666666c24.405333 0 42.666667-18.261333 42.666667-42.666667 0-24.384-18.261333-42.666667-42.666667-42.666666z m106.666667 213.333333H234.666667c-24.405333 0-42.666667 18.261333-42.666667 42.666667 0 24.384 18.261333 42.666667 42.666667 42.666666h277.333333c24.426667 0 42.666667-18.282667 42.666667-42.666666 0-24.405333-18.24-42.666667-42.666667-42.666667z m128 213.333333H234.666667c-24.405333 0-42.666667 18.261333-42.666667 42.666667 0 24.405333 18.261333 42.666667 42.666667 42.666667h405.333333c24.405333 0 42.666667-18.261333 42.666667-42.666667 0-24.405333-18.261333-42.666667-42.666667-42.666667z"  horiz-adv-x="1024" />

    
    <glyph glyph-name="home_event_undeal" unicode="&#58904;" d="M896 789.333333H682.666667c-37.525333 45.994667-105.408 83.114667-169.386667 83.114667-63.978667 0-134.421333-37.12-171.946667-83.114667H128C89.472 789.333333 42.666667 746.666667 42.666667 704v-725.333333c0-42.666667 42.666667-85.333333 85.333333-85.333334h533.333333c-38.208 41.877333-75.370667 106.901333-75.370666 168.213334C585.962667 191.445333 682.666667 298.66666699999996 832 298.66666699999996c60.224 0 107.861333-5.12 149.333333-42.666667V704c0 36.437333-42.666667 85.333333-85.333333 85.333333zM514.496 827.52a48.042667 48.042667 0 1 0 0-96.085333 48.042667 48.042667 0 0 0 0 96.085333zM405.333333 106.66666699999996h-170.666666c-24.405333 0-42.666667 18.282667-42.666667 42.666666 0 24.405333 18.261333 42.666667 42.666667 42.666667h170.666666c24.405333 0 42.666667-18.261333 42.666667-42.666667 0-24.384-18.261333-42.666667-42.666667-42.666666z m106.666667 213.333333H234.666667c-24.405333 0-42.666667 18.261333-42.666667 42.666667 0 24.384 18.261333 42.666667 42.666667 42.666666h277.333333c24.426667 0 42.666667-18.282667 42.666667-42.666666 0-24.405333-18.24-42.666667-42.666667-42.666667z m128 213.333333H234.666667c-24.405333 0-42.666667 18.261333-42.666667 42.666667 0 24.405333 18.261333 42.666667 42.666667 42.666667h405.333333c24.405333 0 42.666667-18.261333 42.666667-42.666667 0-24.405333-18.261333-42.666667-42.666667-42.666667zM831.04 234.66666699999996a169.728 169.728 0 1 1 0.021333-339.392A169.728 169.728 0 0 1 831.04 234.66666699999996z m101.589333-208.064a44.714667 44.714667 0 0 0-63.232-63.210667l-38.357333 38.336-38.336-38.336a44.714667 44.714667 0 0 0-63.210667 63.210667l38.336 38.357333-38.336 38.336a44.714667 44.714667 0 0 0 63.210667 63.232l38.336-38.357333 38.357333 38.357333a44.714667 44.714667 0 0 0 63.232-63.232l-38.357333-38.336 38.357333-38.357333z"  horiz-adv-x="1024" />

    
    <glyph glyph-name="home_event_deal" unicode="&#58905;" d="M896 789.333333H682.666667c-37.504 45.994667-106.709333 85.333333-170.666667 85.333334-64 0-133.141333-39.338667-170.666667-85.333334H128C89.472 789.333333 42.666667 746.666667 42.666667 704v-725.333333c0-42.666667 42.666667-85.333333 85.333333-85.333334h533.333333c-38.208 41.877333-75.370667 106.922667-75.370666 168.213334C585.962667 191.46666700000003 682.666667 298.66666699999996 832 298.66666699999996c60.245333 0 107.882667-5.12 149.333333-42.666667V704c0 36.437333-42.666667 85.333333-85.333333 85.333333zM514.496 827.52a48.042667 48.042667 0 1 0 0-96.106667 48.064 48.064 0 1 0 0 96.106667zM405.333333 106.66666699999996h-170.666666c-24.405333 0-42.666667 18.282667-42.666667 42.666666 0 24.426667 18.261333 42.666667 42.666667 42.666667h170.666666c24.426667 0 42.666667-18.24 42.666667-42.666667 0-24.384-18.24-42.666667-42.666667-42.666666z m106.666667 213.333333H234.666667c-24.405333 0-42.666667 18.24-42.666667 42.666667 0 24.384 18.261333 42.666667 42.666667 42.666666h277.333333c24.426667 0 42.666667-18.282667 42.666667-42.666666 0-24.426667-18.24-42.666667-42.666667-42.666667z m128 213.333333H234.666667c-24.405333 0-42.666667 18.261333-42.666667 42.666667s18.261333 42.666667 42.666667 42.666667h405.333333c24.426667 0 42.666667-18.261333 42.666667-42.666667s-18.24-42.666667-42.666667-42.666667zM832.32 234.66666699999996a170.090667 170.090667 0 1 1 0-340.202667 170.090667 170.090667 0 0 1 0 340.202667z m-6.848-268.864a39.637333 39.637333 0 0 0-28.16-12.138667h-0.384c-10.496 0-20.586667 4.16-28.010667 11.584l-71.957333 71.936a39.616 39.616 0 0 0 56.021333 56.021333l43.370667-43.392 101.205333 105.237334a39.573333 39.573333 0 1 0 57.088-54.890667l-129.173333-134.357333z"  horiz-adv-x="1024" />

    
    <glyph glyph-name="markers" unicode="&#58906;" d="M1024 386.340571C1024 103.57028600000001 816.018286-128 533.248-128S0 100.02285700000004 0 382.82971399999997C0 665.6 250.477714 896 533.248 896 816.018286 896 1024 669.110857 1024 386.340571z"  horiz-adv-x="1024" />

    
    <glyph glyph-name="yunduan_" unicode="&#58931;" d="M775.540364 415.464727L744.727273 523.636364c-17.640727 95.883636-92.253091 186.181818-193.210182 186.181818a205.963636 205.963636 0 0 1-205.963636-205.963637l0.09309-0.977454A226.583273 226.583273 0 0 1 139.636364 277.364364a226.536727 226.536727 0 0 1 164.770909-217.832728L279.272727 58.181818h465.454546c92.532364 10.379636 177.477818 82.618182 177.477818 177.989818 0 88.855273-63.115636 161.466182-146.664727 179.293091zM418.909091 151.272727H325.818182v93.090909h93.090909v-93.090909z m0 186.181818H325.818182v93.09091h93.090909v-93.09091z m279.272727-186.181818h-232.727273v93.090909h232.727273v-93.090909z m0 186.181818h-232.727273v93.09091h232.727273v-93.09091z"  horiz-adv-x="1024" />

    
    <glyph glyph-name="device_secret" unicode="&#58933;" d="M927.311 799.305c-126.782 126.763-332.334 126.763-459.116 0-99.955-99.956-121.082-248.852-63.427-369.514L1.628 26.686l7.525-145.54 145.502-7.524 58.506 58.512c-0.08 0.08-76.479 76.542-51.017 102.039 25.478 25.46 101.846-50.826 102.036-51.016l51.02 51.024c-0.285 0.283-76.478 76.555-51.016 102 25.475 25.51 102.007-51.004 102.007-51.004l-4.264-4.265 55.273 55.28c-0.444 0.444-76.446 76.576-51.01 102.011 25.51 25.511 102.006-51.002 102.006-51.002l-18.554-18.567 108.15 108.154c120.672-57.643 269.571-36.514 369.52 63.436 126.745 126.766 126.745 332.3 0 459.08zM774.247 493.252c-42.247-42.266-110.777-42.266-152.99 0-42.283 42.25-42.283 110.76 0 153.026 42.213 42.249 110.743 42.249 152.99 0 42.287-42.266 42.287-110.776 0-153.026z"  horiz-adv-x="1024" />

    


  </font>
</defs>
</svg>
